<mxfile host="app.diagrams.net" modified="2023-05-25T05:35:23.583Z" agent="Mozilla/5.0 (Macintosh; Intel Mac OS X 10_15_7) AppleWebKit/537.36 (KHTML, like Gecko) Chrome/113.0.0.0 Safari/537.36" etag="wfUXSYsqd_XIxvocoR_r" version="21.3.3" type="github">
  <diagram name="Page-1" id="2c0d36ab-eaac-3732-788b-9136903baeff">
    <mxGraphModel dx="1250" dy="811" grid="1" gridSize="10" guides="1" tooltips="1" connect="1" arrows="1" fold="1" page="1" pageScale="1.5" pageWidth="1169" pageHeight="827" background="none" math="0" shadow="0">
      <root>
        <mxCell id="0" />
        <mxCell id="1" parent="0" />
        <mxCell id="ioABkfagrGWI9k1q4f5f-124" value="" style="edgeStyle=orthogonalEdgeStyle;rounded=0;orthogonalLoop=1;jettySize=auto;html=1;entryX=0.5;entryY=0;entryDx=0;entryDy=0;" edge="1" parent="1" source="2" target="10">
          <mxGeometry relative="1" as="geometry" />
        </mxCell>
        <mxCell id="2" value="Tmux" style="rounded=1;fillColor=#23445D;gradientColor=none;strokeColor=none;fontColor=#FFFFFF;fontStyle=1;fontFamily=Tahoma;fontSize=14" parent="1" vertex="1">
          <mxGeometry x="757" y="185.5" width="190" height="80" as="geometry" />
        </mxCell>
        <mxCell id="4" value="When" style="rounded=1;fillColor=#23445D;gradientColor=none;strokeColor=none;fontColor=#FFFFFF;fontStyle=1;fontFamily=Tahoma;fontSize=14" parent="1" vertex="1">
          <mxGeometry x="1361.9999999999998" y="335.5" width="190" height="80" as="geometry" />
        </mxCell>
        <mxCell id="9" value="" style="edgeStyle=elbowEdgeStyle;elbow=vertical;strokeWidth=2;rounded=0" parent="1" source="2" target="4" edge="1">
          <mxGeometry x="337" y="215.5" width="100" height="100" as="geometry">
            <mxPoint x="337" y="315.5" as="sourcePoint" />
            <mxPoint x="437" y="215.5" as="targetPoint" />
          </mxGeometry>
        </mxCell>
        <mxCell id="10" value="How" style="rounded=1;fillColor=#23445D;gradientColor=none;strokeColor=none;fontColor=#FFFFFF;fontStyle=1;fontFamily=Tahoma;fontSize=14" parent="1" vertex="1">
          <mxGeometry x="947" y="335.5" width="190" height="80" as="geometry" />
        </mxCell>
        <mxCell id="ioABkfagrGWI9k1q4f5f-138" value="" style="edgeStyle=orthogonalEdgeStyle;rounded=0;orthogonalLoop=1;jettySize=auto;html=1;" edge="1" parent="1" source="12" target="ioABkfagrGWI9k1q4f5f-137">
          <mxGeometry relative="1" as="geometry" />
        </mxCell>
        <mxCell id="12" value="Why" style="rounded=1;fillColor=#23445D;gradientColor=none;strokeColor=none;fontColor=#FFFFFF;fontStyle=1;fontFamily=Tahoma;fontSize=14" parent="1" vertex="1">
          <mxGeometry x="561.9999999999999" y="335.5" width="190" height="80" as="geometry" />
        </mxCell>
        <mxCell id="ioABkfagrGWI9k1q4f5f-128" value="" style="edgeStyle=orthogonalEdgeStyle;rounded=0;orthogonalLoop=1;jettySize=auto;html=1;" edge="1" parent="1" source="13" target="ioABkfagrGWI9k1q4f5f-127">
          <mxGeometry relative="1" as="geometry" />
        </mxCell>
        <mxCell id="13" value="What" style="rounded=1;fillColor=#23445D;gradientColor=none;strokeColor=none;fontColor=#FFFFFF;fontStyle=1;fontFamily=Tahoma;fontSize=14" parent="1" vertex="1">
          <mxGeometry x="107" y="335.5" width="190" height="80" as="geometry" />
        </mxCell>
        <mxCell id="59" value="" style="edgeStyle=elbowEdgeStyle;elbow=vertical;strokeWidth=2;rounded=0" parent="1" source="2" target="12" edge="1">
          <mxGeometry x="347" y="225.5" width="100" height="100" as="geometry">
            <mxPoint x="861.9999999999999" y="275.5" as="sourcePoint" />
            <mxPoint x="1466.9999999999998" y="345.5" as="targetPoint" />
          </mxGeometry>
        </mxCell>
        <mxCell id="61" value="" style="edgeStyle=elbowEdgeStyle;elbow=vertical;strokeWidth=2;rounded=0" parent="1" source="2" target="13" edge="1">
          <mxGeometry x="-23" y="135.5" width="100" height="100" as="geometry">
            <mxPoint x="-23" y="235.5" as="sourcePoint" />
            <mxPoint x="77" y="135.5" as="targetPoint" />
          </mxGeometry>
        </mxCell>
        <mxCell id="ioABkfagrGWI9k1q4f5f-130" value="" style="edgeStyle=orthogonalEdgeStyle;rounded=0;orthogonalLoop=1;jettySize=auto;html=1;" edge="1" parent="1" source="ioABkfagrGWI9k1q4f5f-127" target="ioABkfagrGWI9k1q4f5f-129">
          <mxGeometry relative="1" as="geometry">
            <Array as="points">
              <mxPoint x="320" y="536" />
              <mxPoint x="320" y="446" />
            </Array>
          </mxGeometry>
        </mxCell>
        <mxCell id="ioABkfagrGWI9k1q4f5f-134" value="" style="edgeStyle=orthogonalEdgeStyle;rounded=0;orthogonalLoop=1;jettySize=auto;html=1;" edge="1" parent="1" source="ioABkfagrGWI9k1q4f5f-127" target="ioABkfagrGWI9k1q4f5f-133">
          <mxGeometry relative="1" as="geometry">
            <Array as="points">
              <mxPoint x="320" y="536" />
              <mxPoint x="320" y="620" />
            </Array>
          </mxGeometry>
        </mxCell>
        <mxCell id="ioABkfagrGWI9k1q4f5f-140" value="" style="edgeStyle=orthogonalEdgeStyle;rounded=0;orthogonalLoop=1;jettySize=auto;html=1;" edge="1" parent="1" source="ioABkfagrGWI9k1q4f5f-127" target="ioABkfagrGWI9k1q4f5f-139">
          <mxGeometry relative="1" as="geometry" />
        </mxCell>
        <mxCell id="ioABkfagrGWI9k1q4f5f-127" value="terminal multiplexer" style="whiteSpace=wrap;html=1;fontSize=14;fontFamily=Tahoma;fillColor=#23445D;strokeColor=none;fontColor=#FFFFFF;rounded=1;gradientColor=none;fontStyle=1;" vertex="1" parent="1">
          <mxGeometry x="142" y="505.5" width="120" height="60" as="geometry" />
        </mxCell>
        <mxCell id="ioABkfagrGWI9k1q4f5f-129" value="manage sessions" style="whiteSpace=wrap;html=1;fontSize=14;fontFamily=Tahoma;fillColor=#23445D;strokeColor=none;fontColor=#FFFFFF;rounded=1;gradientColor=none;fontStyle=1;" vertex="1" parent="1">
          <mxGeometry x="350" y="415.5" width="120" height="60" as="geometry" />
        </mxCell>
        <mxCell id="ioABkfagrGWI9k1q4f5f-133" value="manage windows" style="whiteSpace=wrap;html=1;fontSize=14;fontFamily=Tahoma;fillColor=#23445D;strokeColor=none;fontColor=#FFFFFF;rounded=1;gradientColor=none;fontStyle=1;" vertex="1" parent="1">
          <mxGeometry x="350" y="580" width="120" height="60" as="geometry" />
        </mxCell>
        <mxCell id="ioABkfagrGWI9k1q4f5f-137" value="default terminal" style="whiteSpace=wrap;html=1;fontSize=14;fontFamily=Tahoma;fillColor=#23445D;strokeColor=none;fontColor=#FFFFFF;rounded=1;gradientColor=none;fontStyle=1;" vertex="1" parent="1">
          <mxGeometry x="596.9999999999999" y="505.5" width="120" height="60" as="geometry" />
        </mxCell>
        <mxCell id="ioABkfagrGWI9k1q4f5f-139" value="" style="whiteSpace=wrap;html=1;fontSize=14;fontFamily=Tahoma;fillColor=#23445D;strokeColor=none;fontColor=#FFFFFF;rounded=1;gradientColor=none;fontStyle=1;" vertex="1" parent="1">
          <mxGeometry x="142" y="645.5" width="120" height="60" as="geometry" />
        </mxCell>
      </root>
    </mxGraphModel>
  </diagram>
</mxfile>
